<svg xmlns="http://www.w3.org/2000/svg" width="640" height="1100" viewBox="0 0 640 1100"><svg y="0" xmlns="http://www.w3.org/2000/svg" width="640" height="220" viewBox="0 0 640 220" font-family="12px ui-monospace, SFMono-Regular, Menlo, monospace" font-size="12"><rect x="0" y="0" width="640" height="220" fill="var(--mcmc-bg,#ffffff)"/><text x="340" y="18" text-anchor="middle" font-weight="bold" fill="var(--mcmc-fg,#111)">alpha0  density</text><line x1="56" y1="184" x2="624" y2="184" stroke="var(--mcmc-fg,#333)"/><line x1="56" y1="28" x2="56" y2="184" stroke="var(--mcmc-fg,#333)"/><line x1="52" y1="184" x2="56" y2="184" stroke="var(--mcmc-fg,#333)"/><text x="49" y="188" text-anchor="end" fill="var(--mcmc-fg,#333)">0</text><line x1="52" y1="149.62790841090674" x2="56" y2="149.62790841090674" stroke="var(--mcmc-fg,#333)"/><text x="49" y="153.62790841090674" text-anchor="end" fill="var(--mcmc-fg,#333)">0.5</text><line x1="52" y1="115.25581682181348" x2="56" y2="115.25581682181348" stroke="var(--mcmc-fg,#333)"/><text x="49" y="119.25581682181348" text-anchor="end" fill="var(--mcmc-fg,#333)">1</text><line x1="52" y1="80.88372523272024" x2="56" y2="80.88372523272024" stroke="var(--mcmc-fg,#333)"/><text x="49" y="84.88372523272024" text-anchor="end" fill="var(--mcmc-fg,#333)">1.5</text><line x1="52" y1="46.511633643626965" x2="56" y2="46.511633643626965" stroke="var(--mcmc-fg,#333)"/><text x="49" y="50.511633643626965" text-anchor="end" fill="var(--mcmc-fg,#333)">2</text><line x1="214.43144669639887" y1="184" x2="214.43144669639887" y2="188" stroke="var(--mcmc-fg,#333)"/><text x="214.43144669639887" y="201" text-anchor="middle" fill="var(--mcmc-fg,#333)">-1</text><line x1="373.26601822798875" y1="184" x2="373.26601822798875" y2="188" stroke="var(--mcmc-fg,#333)"/><text x="373.26601822798875" y="201" text-anchor="middle" fill="var(--mcmc-fg,#333)">-0.5</text><line x1="532.1005897595787" y1="184" x2="532.1005897595787" y2="188" stroke="var(--mcmc-fg,#333)"/><text x="532.1005897595787" y="201" text-anchor="middle" fill="var(--mcmc-fg,#333)">0</text><text x="340" y="216" text-anchor="middle" fill="var(--mcmc-fg,#333)">alpha0</text><text x="14" y="106" text-anchor="middle" fill="var(--mcmc-fg,#333)" transform="rotate(-90 14 106)">density</text><path d="M56.00 184.00 L58.23 184.00 L60.45 184.00 L62.68 184.00 L64.91 184.00 L67.14 184.00 L69.36 184.00 L71.59 184.00 L73.82 184.00 L76.05 184.00 L78.27 183.99 L80.50 183.99 L82.73 183.98 L84.96 183.98 L87.18 183.96 L89.41 183.95 L91.64 183.93 L93.87 183.91 L96.09 183.88 L98.32 183.85 L100.55 183.81 L102.78 183.76 L105.00 183.72 L107.23 183.66 L109.46 183.61 L111.69 183.55 L113.91 183.49 L116.14 183.43 L118.37 183.38 L120.60 183.33 L122.82 183.28 L125.05 183.24 L127.28 183.20 L129.51 183.16 L131.73 183.11 L133.96 183.07 L136.19 183.02 L138.42 182.96 L140.64 182.90 L142.87 182.83 L145.10 182.75 L147.33 182.67 L149.55 182.58 L151.78 182.48 L154.01 182.38 L156.24 182.28 L158.46 182.17 L160.69 182.05 L162.92 181.92 L165.15 181.78 L167.37 181.63 L169.60 181.48 L171.83 181.31 L174.05 181.13 L176.28 180.95 L178.51 180.76 L180.74 180.57 L182.96 180.38 L185.19 180.19 L187.42 179.99 L189.65 179.79 L191.87 179.57 L194.10 179.33 L196.33 179.07 L198.56 178.75 L200.78 178.39 L203.01 177.96 L205.24 177.46 L207.47 176.88 L209.69 176.21 L211.92 175.45 L214.15 174.60 L216.38 173.67 L218.60 172.66 L220.83 171.59 L223.06 170.46 L225.29 169.29 L227.51 168.07 L229.74 166.83 L231.97 165.57 L234.20 164.28 L236.42 162.96 L238.65 161.61 L240.88 160.22 L243.11 158.77 L245.33 157.24 L247.56 155.62 L249.79 153.90 L252.02 152.06 L254.24 150.11 L256.47 148.04 L258.70 145.86 L260.93 143.58 L263.15 141.23 L265.38 138.83 L267.61 136.40 L269.84 133.98 L272.06 131.57 L274.29 129.19 L276.52 126.85 L278.75 124.53 L280.97 122.23 L283.20 119.92 L285.43 117.57 L287.65 115.16 L289.88 112.66 L292.11 110.05 L294.34 107.31 L296.56 104.44 L298.79 101.43 L301.02 98.29 L303.25 95.05 L305.47 91.71 L307.70 88.30 L309.93 84.86 L312.16 81.40 L314.38 77.95 L316.61 74.53 L318.84 71.17 L321.07 67.89 L323.29 64.72 L325.52 61.66 L327.75 58.74 L329.98 55.98 L332.20 53.39 L334.43 50.96 L336.66 48.72 L338.89 46.64 L341.11 44.73 L343.34 42.98 L345.57 41.38 L347.80 39.93 L350.02 38.64 L352.25 37.52 L354.48 36.59 L356.71 35.87 L358.93 35.40 L361.16 35.22 L363.39 35.37 L365.62 35.86 L367.84 36.73 L370.07 37.98 L372.30 39.61 L374.53 41.61 L376.75 43.93 L378.98 46.55 L381.21 49.40 L383.44 52.43 L385.66 55.59 L387.89 58.82 L390.12 62.08 L392.35 65.33 L394.57 68.53 L396.80 71.66 L399.03 74.70 L401.25 77.66 L403.48 80.52 L405.71 83.29 L407.94 85.97 L410.16 88.56 L412.39 91.07 L414.62 93.51 L416.85 95.88 L419.07 98.21 L421.30 100.50 L423.53 102.77 L425.76 105.06 L427.98 107.37 L430.21 109.74 L432.44 112.21 L434.67 114.78 L436.89 117.49 L439.12 120.34 L441.35 123.33 L443.58 126.47 L445.80 129.72 L448.03 133.06 L450.26 136.45 L452.49 139.84 L454.71 143.19 L456.94 146.44 L459.17 149.55 L461.40 152.48 L463.62 155.20 L465.85 157.69 L468.08 159.93 L470.31 161.93 L472.53 163.69 L474.76 165.24 L476.99 166.59 L479.22 167.78 L481.44 168.83 L483.67 169.77 L485.90 170.62 L488.13 171.40 L490.35 172.13 L492.58 172.83 L494.81 173.49 L497.04 174.12 L499.26 174.73 L501.49 175.32 L503.72 175.88 L505.95 176.41 L508.17 176.91 L510.40 177.38 L512.63 177.81 L514.85 178.21 L517.08 178.58 L519.31 178.92 L521.54 179.23 L523.76 179.53 L525.99 179.80 L528.22 180.07 L530.45 180.33 L532.67 180.59 L534.90 180.85 L537.13 181.11 L539.36 181.37 L541.58 181.63 L543.81 181.89 L546.04 182.15 L548.27 182.40 L550.49 182.63 L552.72 182.85 L554.95 183.05 L557.18 183.23 L559.40 183.38 L561.63 183.52 L563.86 183.63 L566.09 183.72 L568.31 183.79 L570.54 183.85 L572.77 183.89 L575.00 183.92 L577.22 183.95 L579.45 183.96 L581.68 183.98 L583.91 183.98 L586.13 183.99 L588.36 183.99 L590.59 184.00 L592.82 184.00 L595.04 184.00 L597.27 184.00 L599.50 184.00 L601.73 184.00 L603.95 184.00 L606.18 184.00 L608.41 184.00 L610.64 184.00 L612.86 184.00 L615.09 184.00 L617.32 184.00 L619.55 184.00 L621.77 184.00 L624.00 184.00" fill="none" stroke="#1f77b4" stroke-width="1.25" stroke-opacity="0.85" data-tip="chain 1"/><path d="M56.00 183.87 L58.23 183.83 L60.45 183.79 L62.68 183.74 L64.91 183.69 L67.14 183.64 L69.36 183.59 L71.59 183.54 L73.82 183.49 L76.05 183.45 L78.27 183.42 L80.50 183.41 L82.73 183.40 L84.96 183.41 L87.18 183.42 L89.41 183.45 L91.64 183.47 L93.87 183.50 L96.09 183.53 L98.32 183.55 L100.55 183.57 L102.78 183.57 L105.00 183.57 L107.23 183.55 L109.46 183.52 L111.69 183.49 L113.91 183.45 L116.14 183.40 L118.37 183.36 L120.60 183.31 L122.82 183.26 L125.05 183.21 L127.28 183.17 L129.51 183.12 L131.73 183.06 L133.96 183.00 L136.19 182.94 L138.42 182.86 L140.64 182.78 L142.87 182.70 L145.10 182.61 L147.33 182.51 L149.55 182.42 L151.78 182.33 L154.01 182.25 L156.24 182.18 L158.46 182.12 L160.69 182.07 L162.92 182.03 L165.15 181.99 L167.37 181.97 L169.60 181.94 L171.83 181.91 L174.05 181.88 L176.28 181.84 L178.51 181.77 L180.74 181.67 L182.96 181.53 L185.19 181.34 L187.42 181.09 L189.65 180.77 L191.87 180.36 L194.10 179.87 L196.33 179.29 L198.56 178.61 L200.78 177.85 L203.01 177.01 L205.24 176.09 L207.47 175.10 L209.69 174.06 L211.92 172.98 L214.15 171.87 L216.38 170.74 L218.60 169.60 L220.83 168.45 L223.06 167.31 L225.29 166.17 L227.51 165.03 L229.74 163.91 L231.97 162.79 L234.20 161.68 L236.42 160.58 L238.65 159.48 L240.88 158.38 L243.11 157.29 L245.33 156.19 L247.56 155.08 L249.79 153.96 L252.02 152.81 L254.24 151.61 L256.47 150.36 L258.70 149.02 L260.93 147.57 L263.15 145.99 L265.38 144.26 L267.61 142.35 L269.84 140.25 L272.06 137.96 L274.29 135.46 L276.52 132.78 L278.75 129.92 L280.97 126.89 L283.20 123.71 L285.43 120.40 L287.65 116.97 L289.88 113.44 L292.11 109.82 L294.34 106.12 L296.56 102.34 L298.79 98.50 L301.02 94.61 L303.25 90.66 L305.47 86.69 L307.70 82.72 L309.93 78.76 L312.16 74.87 L314.38 71.06 L316.61 67.39 L318.84 63.88 L321.07 60.57 L323.29 57.46 L325.52 54.56 L327.75 51.87 L329.98 49.37 L332.20 47.02 L334.43 44.79 L336.66 42.66 L338.89 40.59 L341.11 38.58 L343.34 36.63 L345.57 34.75 L347.80 32.98 L350.02 31.39 L352.25 30.02 L354.48 28.96 L356.71 28.27 L358.93 28.00 L361.16 28.21 L363.39 28.92 L365.62 30.13 L367.84 31.82 L370.07 33.95 L372.30 36.46 L374.53 39.27 L376.75 42.31 L378.98 45.48 L381.21 48.73 L383.44 51.98 L385.66 55.22 L387.89 58.41 L390.12 61.56 L392.35 64.69 L394.57 67.82 L396.80 71.00 L399.03 74.26 L401.25 77.63 L403.48 81.14 L405.71 84.79 L407.94 88.57 L410.16 92.47 L412.39 96.45 L414.62 100.45 L416.85 104.44 L419.07 108.35 L421.30 112.15 L423.53 115.80 L425.76 119.28 L427.98 122.56 L430.21 125.66 L432.44 128.59 L434.67 131.37 L436.89 134.02 L439.12 136.56 L441.35 139.01 L443.58 141.38 L445.80 143.68 L448.03 145.91 L450.26 148.05 L452.49 150.10 L454.71 152.04 L456.94 153.88 L459.17 155.60 L461.40 157.22 L463.62 158.72 L465.85 160.14 L468.08 161.46 L470.31 162.71 L472.53 163.90 L474.76 165.01 L476.99 166.06 L479.22 167.04 L481.44 167.94 L483.67 168.76 L485.90 169.49 L488.13 170.14 L490.35 170.70 L492.58 171.20 L494.81 171.64 L497.04 172.04 L499.26 172.42 L501.49 172.79 L503.72 173.16 L505.95 173.55 L508.17 173.96 L510.40 174.39 L512.63 174.84 L514.85 175.31 L517.08 175.79 L519.31 176.26 L521.54 176.73 L523.76 177.19 L525.99 177.63 L528.22 178.05 L530.45 178.44 L532.67 178.81 L534.90 179.16 L537.13 179.49 L539.36 179.80 L541.58 180.11 L543.81 180.40 L546.04 180.68 L548.27 180.95 L550.49 181.21 L552.72 181.46 L554.95 181.70 L557.18 181.92 L559.40 182.12 L561.63 182.30 L563.86 182.46 L566.09 182.61 L568.31 182.73 L570.54 182.84 L572.77 182.94 L575.00 183.02 L577.22 183.08 L579.45 183.14 L581.68 183.18 L583.91 183.21 L586.13 183.23 L588.36 183.25 L590.59 183.26 L592.82 183.27 L595.04 183.29 L597.27 183.31 L599.50 183.34 L601.73 183.37 L603.95 183.42 L606.18 183.47 L608.41 183.52 L610.64 183.58 L612.86 183.63 L615.09 183.69 L617.32 183.74 L619.55 183.79 L621.77 183.83 L624.00 183.87" fill="none" stroke="#ff7f0e" stroke-width="1.25" stroke-opacity="0.85" data-tip="chain 2"/></svg><svg y="220" xmlns="http://www.w3.org/2000/svg" width="640" height="220" viewBox="0 0 640 220" font-family="12px ui-monospace, SFMono-Regular, Menlo, monospace" font-size="12"><rect x="0" y="0" width="640" height="220" fill="var(--mcmc-bg,#ffffff)"/><text x="340" y="18" text-anchor="middle" font-weight="bold" fill="var(--mcmc-fg,#111)">alpha1  density</text><line x1="56" y1="184" x2="624" y2="184" stroke="var(--mcmc-fg,#333)"/><line x1="56" y1="28" x2="56" y2="184" stroke="var(--mcmc-fg,#333)"/><line x1="52" y1="184" x2="56" y2="184" stroke="var(--mcmc-fg,#333)"/><text x="49" y="188" text-anchor="end" fill="var(--mcmc-fg,#333)">0</text><line x1="52" y1="160.5274964602333" x2="56" y2="160.5274964602333" stroke="var(--mcmc-fg,#333)"/><text x="49" y="164.5274964602333" text-anchor="end" fill="var(--mcmc-fg,#333)">0.2</text><line x1="52" y1="137.0549929204666" x2="56" y2="137.0549929204666" stroke="var(--mcmc-fg,#333)"/><text x="49" y="141.0549929204666" text-anchor="end" fill="var(--mcmc-fg,#333)">0.4</text><line x1="52" y1="113.58248938069991" x2="56" y2="113.58248938069991" stroke="var(--mcmc-fg,#333)"/><text x="49" y="117.58248938069991" text-anchor="end" fill="var(--mcmc-fg,#333)">0.6</text><line x1="52" y1="90.10998584093319" x2="56" y2="90.10998584093319" stroke="var(--mcmc-fg,#333)"/><text x="49" y="94.10998584093319" text-anchor="end" fill="var(--mcmc-fg,#333)">0.8</text><line x1="52" y1="66.6374823011665" x2="56" y2="66.6374823011665" stroke="var(--mcmc-fg,#333)"/><text x="49" y="70.6374823011665" text-anchor="end" fill="var(--mcmc-fg,#333)">1</text><line x1="52" y1="43.16497876139982" x2="56" y2="43.16497876139982" stroke="var(--mcmc-fg,#333)"/><text x="49" y="47.16497876139982" text-anchor="end" fill="var(--mcmc-fg,#333)">1.2</text><line x1="91.60601731763296" y1="184" x2="91.60601731763296" y2="188" stroke="var(--mcmc-fg,#333)"/><text x="91.60601731763296" y="201" text-anchor="middle" fill="var(--mcmc-fg,#333)">-1</text><line x1="196.2986068552937" y1="184" x2="196.2986068552937" y2="188" stroke="var(--mcmc-fg,#333)"/><text x="196.2986068552937" y="201" text-anchor="middle" fill="var(--mcmc-fg,#333)">-0.5</text><line x1="300.99119639295446" y1="184" x2="300.99119639295446" y2="188" stroke="var(--mcmc-fg,#333)"/><text x="300.99119639295446" y="201" text-anchor="middle" fill="var(--mcmc-fg,#333)">0</text><line x1="405.6837859306153" y1="184" x2="405.6837859306153" y2="188" stroke="var(--mcmc-fg,#333)"/><text x="405.6837859306153" y="201" text-anchor="middle" fill="var(--mcmc-fg,#333)">0.5</text><line x1="510.37637546827597" y1="184" x2="510.37637546827597" y2="188" stroke="var(--mcmc-fg,#333)"/><text x="510.37637546827597" y="201" text-anchor="middle" fill="var(--mcmc-fg,#333)">1</text><line x1="615.0689650059368" y1="184" x2="615.0689650059368" y2="188" stroke="var(--mcmc-fg,#333)"/><text x="615.0689650059368" y="201" text-anchor="middle" fill="var(--mcmc-fg,#333)">1.5</text><text x="340" y="216" text-anchor="middle" fill="var(--mcmc-fg,#333)">alpha1</text><text x="14" y="106" text-anchor="middle" fill="var(--mcmc-fg,#333)" transform="rotate(-90 14 106)">density</text><path d="M56.00 183.79 L58.23 183.75 L60.45 183.69 L62.68 183.63 L64.91 183.57 L67.14 183.49 L69.36 183.41 L71.59 183.33 L73.82 183.24 L76.05 183.14 L78.27 183.05 L80.50 182.94 L82.73 182.84 L84.96 182.74 L87.18 182.63 L89.41 182.53 L91.64 182.43 L93.87 182.33 L96.09 182.23 L98.32 182.14 L100.55 182.05 L102.78 181.98 L105.00 181.90 L107.23 181.83 L109.46 181.76 L111.69 181.70 L113.91 181.63 L116.14 181.55 L118.37 181.47 L120.60 181.37 L122.82 181.25 L125.05 181.12 L127.28 180.97 L129.51 180.80 L131.73 180.61 L133.96 180.41 L136.19 180.18 L138.42 179.93 L140.64 179.67 L142.87 179.38 L145.10 179.08 L147.33 178.75 L149.55 178.40 L151.78 178.03 L154.01 177.62 L156.24 177.18 L158.46 176.71 L160.69 176.21 L162.92 175.67 L165.15 175.10 L167.37 174.49 L169.60 173.86 L171.83 173.20 L174.05 172.52 L176.28 171.80 L178.51 171.06 L180.74 170.27 L182.96 169.44 L185.19 168.55 L187.42 167.59 L189.65 166.55 L191.87 165.41 L194.10 164.15 L196.33 162.75 L198.56 161.21 L200.78 159.49 L203.01 157.60 L205.24 155.53 L207.47 153.26 L209.69 150.81 L211.92 148.16 L214.15 145.35 L216.38 142.36 L218.60 139.24 L220.83 135.99 L223.06 132.65 L225.29 129.23 L227.51 125.78 L229.74 122.30 L231.97 118.83 L234.20 115.39 L236.42 111.99 L238.65 108.63 L240.88 105.34 L243.11 102.09 L245.33 98.89 L247.56 95.74 L249.79 92.61 L252.02 89.51 L254.24 86.40 L256.47 83.30 L258.70 80.17 L260.93 77.03 L263.15 73.86 L265.38 70.67 L267.61 67.46 L269.84 64.24 L272.06 61.03 L274.29 57.84 L276.52 54.71 L278.75 51.66 L280.97 48.73 L283.20 45.96 L285.43 43.40 L287.65 41.08 L289.88 39.05 L292.11 37.34 L294.34 35.98 L296.56 35.00 L298.79 34.39 L301.02 34.16 L303.25 34.29 L305.47 34.75 L307.70 35.50 L309.93 36.49 L312.16 37.68 L314.38 39.01 L316.61 40.42 L318.84 41.87 L321.07 43.33 L323.29 44.75 L325.52 46.12 L327.75 47.43 L329.98 48.68 L332.20 49.86 L334.43 51.00 L336.66 52.09 L338.89 53.17 L341.11 54.25 L343.34 55.35 L345.57 56.46 L347.80 57.62 L350.02 58.82 L352.25 60.07 L354.48 61.38 L356.71 62.76 L358.93 64.20 L361.16 65.73 L363.39 67.34 L365.62 69.06 L367.84 70.91 L370.07 72.89 L372.30 75.04 L374.53 77.36 L376.75 79.86 L378.98 82.56 L381.21 85.46 L383.44 88.55 L385.66 91.82 L387.89 95.24 L390.12 98.81 L392.35 102.47 L394.57 106.20 L396.80 109.95 L399.03 113.68 L401.25 117.36 L403.48 120.95 L405.71 124.42 L407.94 127.76 L410.16 130.94 L412.39 133.96 L414.62 136.81 L416.85 139.50 L419.07 142.03 L421.30 144.42 L423.53 146.67 L425.76 148.78 L427.98 150.79 L430.21 152.67 L432.44 154.46 L434.67 156.14 L436.89 157.72 L439.12 159.21 L441.35 160.60 L443.58 161.89 L445.80 163.09 L448.03 164.19 L450.26 165.22 L452.49 166.16 L454.71 167.04 L456.94 167.86 L459.17 168.62 L461.40 169.35 L463.62 170.05 L465.85 170.73 L468.08 171.39 L470.31 172.04 L472.53 172.69 L474.76 173.33 L476.99 173.96 L479.22 174.58 L481.44 175.18 L483.67 175.76 L485.90 176.32 L488.13 176.84 L490.35 177.32 L492.58 177.77 L494.81 178.18 L497.04 178.56 L499.26 178.90 L501.49 179.21 L503.72 179.49 L505.95 179.76 L508.17 180.01 L510.40 180.25 L512.63 180.49 L514.85 180.73 L517.08 180.96 L519.31 181.19 L521.54 181.41 L523.76 181.63 L525.99 181.84 L528.22 182.04 L530.45 182.23 L532.67 182.40 L534.90 182.55 L537.13 182.69 L539.36 182.80 L541.58 182.90 L543.81 182.99 L546.04 183.06 L548.27 183.12 L550.49 183.18 L552.72 183.23 L554.95 183.27 L557.18 183.31 L559.40 183.35 L561.63 183.39 L563.86 183.42 L566.09 183.45 L568.31 183.48 L570.54 183.50 L572.77 183.51 L575.00 183.52 L577.22 183.52 L579.45 183.51 L581.68 183.50 L583.91 183.49 L586.13 183.47 L588.36 183.45 L590.59 183.43 L592.82 183.42 L595.04 183.41 L597.27 183.41 L599.50 183.42 L601.73 183.43 L603.95 183.45 L606.18 183.48 L608.41 183.52 L610.64 183.56 L612.86 183.60 L615.09 183.65 L617.32 183.69 L619.55 183.74 L621.77 183.78 L624.00 183.82" fill="none" stroke="#1f77b4" stroke-width="1.25" stroke-opacity="0.85" data-tip="chain 1"/><path d="M56.00 184.00 L58.23 184.00 L60.45 184.00 L62.68 184.00 L64.91 184.00 L67.14 184.00 L69.36 183.99 L71.59 183.99 L73.82 183.99 L76.05 183.98 L78.27 183.97 L80.50 183.96 L82.73 183.95 L84.96 183.93 L87.18 183.91 L89.41 183.88 L91.64 183.84 L93.87 183.80 L96.09 183.75 L98.32 183.69 L100.55 183.62 L102.78 183.54 L105.00 183.44 L107.23 183.34 L109.46 183.22 L111.69 183.08 L113.91 182.92 L116.14 182.75 L118.37 182.54 L120.60 182.30 L122.82 182.03 L125.05 181.72 L127.28 181.37 L129.51 180.97 L131.73 180.52 L133.96 180.02 L136.19 179.47 L138.42 178.87 L140.64 178.23 L142.87 177.55 L145.10 176.84 L147.33 176.10 L149.55 175.34 L151.78 174.56 L154.01 173.77 L156.24 172.97 L158.46 172.17 L160.69 171.37 L162.92 170.57 L165.15 169.77 L167.37 168.97 L169.60 168.16 L171.83 167.34 L174.05 166.51 L176.28 165.66 L178.51 164.78 L180.74 163.86 L182.96 162.90 L185.19 161.89 L187.42 160.82 L189.65 159.68 L191.87 158.46 L194.10 157.15 L196.33 155.76 L198.56 154.27 L200.78 152.69 L203.01 151.00 L205.24 149.22 L207.47 147.34 L209.69 145.38 L211.92 143.32 L214.15 141.19 L216.38 138.99 L218.60 136.73 L220.83 134.42 L223.06 132.08 L225.29 129.72 L227.51 127.36 L229.74 125.01 L231.97 122.69 L234.20 120.41 L236.42 118.17 L238.65 115.99 L240.88 113.87 L243.11 111.80 L245.33 109.77 L247.56 107.76 L249.79 105.76 L252.02 103.74 L254.24 101.67 L256.47 99.53 L258.70 97.29 L260.93 94.92 L263.15 92.42 L265.38 89.76 L267.61 86.93 L269.84 83.94 L272.06 80.79 L274.29 77.49 L276.52 74.07 L278.75 70.54 L280.97 66.95 L283.20 63.33 L285.43 59.72 L287.65 56.16 L289.88 52.70 L292.11 49.37 L294.34 46.20 L296.56 43.25 L298.79 40.52 L301.02 38.05 L303.25 35.84 L305.47 33.91 L307.70 32.26 L309.93 30.89 L312.16 29.79 L314.38 28.96 L316.61 28.40 L318.84 28.08 L321.07 28.00 L323.29 28.14 L325.52 28.48 L327.75 29.02 L329.98 29.72 L332.20 30.58 L334.43 31.59 L336.66 32.73 L338.89 34.00 L341.11 35.39 L343.34 36.92 L345.57 38.58 L347.80 40.39 L350.02 42.37 L352.25 44.52 L354.48 46.87 L356.71 49.43 L358.93 52.19 L361.16 55.18 L363.39 58.37 L365.62 61.77 L367.84 65.34 L370.07 69.06 L372.30 72.91 L374.53 76.85 L376.75 80.85 L378.98 84.88 L381.21 88.91 L383.44 92.92 L385.66 96.89 L387.89 100.81 L390.12 104.67 L392.35 108.46 L394.57 112.17 L396.80 115.79 L399.03 119.31 L401.25 122.71 L403.48 125.99 L405.71 129.14 L407.94 132.13 L410.16 134.95 L412.39 137.61 L414.62 140.10 L416.85 142.43 L419.07 144.60 L421.30 146.63 L423.53 148.54 L425.76 150.36 L427.98 152.10 L430.21 153.77 L432.44 155.40 L434.67 156.99 L436.89 158.55 L439.12 160.07 L441.35 161.55 L443.58 162.97 L445.80 164.33 L448.03 165.61 L450.26 166.81 L452.49 167.91 L454.71 168.91 L456.94 169.81 L459.17 170.62 L461.40 171.33 L463.62 171.96 L465.85 172.52 L468.08 173.01 L470.31 173.47 L472.53 173.88 L474.76 174.28 L476.99 174.67 L479.22 175.06 L481.44 175.45 L483.67 175.85 L485.90 176.27 L488.13 176.70 L490.35 177.14 L492.58 177.59 L494.81 178.04 L497.04 178.48 L499.26 178.91 L501.49 179.31 L503.72 179.68 L505.95 180.01 L508.17 180.29 L510.40 180.54 L512.63 180.73 L514.85 180.89 L517.08 181.00 L519.31 181.08 L521.54 181.13 L523.76 181.17 L525.99 181.19 L528.22 181.21 L530.45 181.24 L532.67 181.28 L534.90 181.33 L537.13 181.41 L539.36 181.50 L541.58 181.60 L543.81 181.73 L546.04 181.87 L548.27 182.01 L550.49 182.17 L552.72 182.33 L554.95 182.49 L557.18 182.65 L559.40 182.80 L561.63 182.95 L563.86 183.09 L566.09 183.22 L568.31 183.34 L570.54 183.44 L572.77 183.54 L575.00 183.62 L577.22 183.69 L579.45 183.76 L581.68 183.81 L583.91 183.85 L586.13 183.89 L588.36 183.91 L590.59 183.94 L592.82 183.95 L595.04 183.97 L597.27 183.98 L599.50 183.98 L601.73 183.99 L603.95 183.99 L606.18 184.00 L608.41 184.00 L610.64 184.00 L612.86 184.00 L615.09 184.00 L617.32 184.00 L619.55 184.00 L621.77 184.00 L624.00 184.00" fill="none" stroke="#ff7f0e" stroke-width="1.25" stroke-opacity="0.85" data-tip="chain 2"/></svg><svg y="440" xmlns="http://www.w3.org/2000/svg" width="640" height="220" viewBox="0 0 640 220" font-family="12px ui-monospace, SFMono-Regular, Menlo, monospace" font-size="12"><rect x="0" y="0" width="640" height="220" fill="var(--mcmc-bg,#ffffff)"/><text x="340" y="18" text-anchor="middle" font-weight="bold" fill="var(--mcmc-fg,#111)">alpha12  density</text><line x1="56" y1="184" x2="624" y2="184" stroke="var(--mcmc-fg,#333)"/><line x1="56" y1="28" x2="56" y2="184" stroke="var(--mcmc-fg,#333)"/><line x1="52" y1="184" x2="56" y2="184" stroke="var(--mcmc-fg,#333)"/><text x="49" y="188" text-anchor="end" fill="var(--mcmc-fg,#333)">0</text><line x1="52" y1="152.04336240251956" x2="56" y2="152.04336240251956" stroke="var(--mcmc-fg,#333)"/><text x="49" y="156.04336240251956" text-anchor="end" fill="var(--mcmc-fg,#333)">0.2</text><line x1="52" y1="120.08672480503913" x2="56" y2="120.08672480503913" stroke="var(--mcmc-fg,#333)"/><text x="49" y="124.08672480503913" text-anchor="end" fill="var(--mcmc-fg,#333)">0.4</text><line x1="52" y1="88.13008720755869" x2="56" y2="88.13008720755869" stroke="var(--mcmc-fg,#333)"/><text x="49" y="92.13008720755869" text-anchor="end" fill="var(--mcmc-fg,#333)">0.6</text><line x1="52" y1="56.17344961007825" x2="56" y2="56.17344961007825" stroke="var(--mcmc-fg,#333)"/><text x="49" y="60.17344961007825" text-anchor="end" fill="var(--mcmc-fg,#333)">0.8</text><line x1="192.6196029036958" y1="184" x2="192.6196029036958" y2="188" stroke="var(--mcmc-fg,#333)"/><text x="192.6196029036958" y="201" text-anchor="middle" fill="var(--mcmc-fg,#333)">-2</text><line x1="337.8945755809463" y1="184" x2="337.8945755809463" y2="188" stroke="var(--mcmc-fg,#333)"/><text x="337.8945755809463" y="201" text-anchor="middle" fill="var(--mcmc-fg,#333)">-1</text><line x1="483.1695482581968" y1="184" x2="483.1695482581968" y2="188" stroke="var(--mcmc-fg,#333)"/><text x="483.1695482581968" y="201" text-anchor="middle" fill="var(--mcmc-fg,#333)">0</text><text x="340" y="216" text-anchor="middle" fill="var(--mcmc-fg,#333)">alpha12</text><text x="14" y="106" text-anchor="middle" fill="var(--mcmc-fg,#333)" transform="rotate(-90 14 106)">density</text><path d="M56.00 183.99 L58.23 183.98 L60.45 183.98 L62.68 183.97 L64.91 183.95 L67.14 183.93 L69.36 183.91 L71.59 183.89 L73.82 183.85 L76.05 183.81 L78.27 183.77 L80.50 183.71 L82.73 183.66 L84.96 183.59 L87.18 183.53 L89.41 183.46 L91.64 183.39 L93.87 183.32 L96.09 183.25 L98.32 183.19 L100.55 183.12 L102.78 183.07 L105.00 183.01 L107.23 182.96 L109.46 182.91 L111.69 182.87 L113.91 182.83 L116.14 182.80 L118.37 182.77 L120.60 182.75 L122.82 182.74 L125.05 182.74 L127.28 182.75 L129.51 182.77 L131.73 182.79 L133.96 182.82 L136.19 182.85 L138.42 182.89 L140.64 182.92 L142.87 182.93 L145.10 182.94 L147.33 182.92 L149.55 182.89 L151.78 182.82 L154.01 182.73 L156.24 182.60 L158.46 182.44 L160.69 182.25 L162.92 182.02 L165.15 181.77 L167.37 181.48 L169.60 181.17 L171.83 180.83 L174.05 180.47 L176.28 180.10 L178.51 179.70 L180.74 179.28 L182.96 178.85 L185.19 178.39 L187.42 177.90 L189.65 177.38 L191.87 176.83 L194.10 176.23 L196.33 175.58 L198.56 174.88 L200.78 174.12 L203.01 173.30 L205.24 172.42 L207.47 171.49 L209.69 170.51 L211.92 169.50 L214.15 168.47 L216.38 167.44 L218.60 166.42 L220.83 165.43 L223.06 164.48 L225.29 163.60 L227.51 162.78 L229.74 162.01 L231.97 161.31 L234.20 160.64 L236.42 160.00 L238.65 159.36 L240.88 158.70 L243.11 157.98 L245.33 157.18 L247.56 156.29 L249.79 155.28 L252.02 154.15 L254.24 152.88 L256.47 151.48 L258.70 149.95 L260.93 148.28 L263.15 146.49 L265.38 144.59 L267.61 142.56 L269.84 140.43 L272.06 138.20 L274.29 135.87 L276.52 133.45 L278.75 130.94 L280.97 128.36 L283.20 125.71 L285.43 122.99 L287.65 120.21 L289.88 117.38 L292.11 114.49 L294.34 111.56 L296.56 108.59 L298.79 105.59 L301.02 102.55 L303.25 99.48 L305.47 96.40 L307.70 93.32 L309.93 90.24 L312.16 87.18 L314.38 84.16 L316.61 81.19 L318.84 78.28 L321.07 75.45 L323.29 72.71 L325.52 70.05 L327.75 67.50 L329.98 65.04 L332.20 62.68 L334.43 60.41 L336.66 58.22 L338.89 56.08 L341.11 54.00 L343.34 51.94 L345.57 49.89 L347.80 47.85 L350.02 45.82 L352.25 43.79 L354.48 41.80 L356.71 39.85 L358.93 37.99 L361.16 36.25 L363.39 34.68 L365.62 33.31 L367.84 32.20 L370.07 31.37 L372.30 30.84 L374.53 30.64 L376.75 30.78 L378.98 31.25 L381.21 32.05 L383.44 33.17 L385.66 34.59 L387.89 36.30 L390.12 38.29 L392.35 40.55 L394.57 43.05 L396.80 45.79 L399.03 48.75 L401.25 51.93 L403.48 55.29 L405.71 58.83 L407.94 62.53 L410.16 66.35 L412.39 70.27 L414.62 74.27 L416.85 78.31 L419.07 82.37 L421.30 86.41 L423.53 90.40 L425.76 94.32 L427.98 98.15 L430.21 101.87 L432.44 105.46 L434.67 108.91 L436.89 112.21 L439.12 115.37 L441.35 118.38 L443.58 121.26 L445.80 124.02 L448.03 126.68 L450.26 129.25 L452.49 131.76 L454.71 134.22 L456.94 136.65 L459.17 139.07 L461.40 141.48 L463.62 143.89 L465.85 146.29 L468.08 148.67 L470.31 151.01 L472.53 153.31 L474.76 155.54 L476.99 157.67 L479.22 159.71 L481.44 161.63 L483.67 163.42 L485.90 165.07 L488.13 166.60 L490.35 167.99 L492.58 169.26 L494.81 170.42 L497.04 171.48 L499.26 172.43 L501.49 173.31 L503.72 174.10 L505.95 174.83 L508.17 175.49 L510.40 176.09 L512.63 176.63 L514.85 177.12 L517.08 177.56 L519.31 177.96 L521.54 178.31 L523.76 178.63 L525.99 178.92 L528.22 179.18 L530.45 179.42 L532.67 179.65 L534.90 179.87 L537.13 180.09 L539.36 180.30 L541.58 180.52 L543.81 180.73 L546.04 180.95 L548.27 181.17 L550.49 181.39 L552.72 181.61 L554.95 181.83 L557.18 182.03 L559.40 182.23 L561.63 182.42 L563.86 182.59 L566.09 182.75 L568.31 182.89 L570.54 183.01 L572.77 183.11 L575.00 183.19 L577.22 183.25 L579.45 183.30 L581.68 183.33 L583.91 183.35 L586.13 183.36 L588.36 183.36 L590.59 183.36 L592.82 183.36 L595.04 183.36 L597.27 183.37 L599.50 183.38 L601.73 183.40 L603.95 183.43 L606.18 183.47 L608.41 183.52 L610.64 183.57 L612.86 183.62 L615.09 183.67 L617.32 183.72 L619.55 183.77 L621.77 183.81 L624.00 183.85" fill="none" stroke="#1f77b4" stroke-width="1.25" stroke-opacity="0.85" data-tip="chain 1"/><path d="M56.00 183.85 L58.23 183.81 L60.45 183.77 L62.68 183.72 L64.91 183.67 L67.14 183.62 L69.36 183.57 L71.59 183.52 L73.82 183.47 L76.05 183.44 L78.27 183.41 L80.50 183.40 L82.73 183.40 L84.96 183.41 L87.18 183.43 L89.41 183.47 L91.64 183.51 L93.87 183.56 L96.09 183.61 L98.32 183.66 L100.55 183.71 L102.78 183.76 L105.00 183.80 L107.23 183.84 L109.46 183.87 L111.69 183.89 L113.91 183.90 L116.14 183.91 L118.37 183.90 L120.60 183.89 L122.82 183.87 L125.05 183.84 L127.28 183.80 L129.51 183.75 L131.73 183.69 L133.96 183.63 L136.19 183.55 L138.42 183.46 L140.64 183.37 L142.87 183.27 L145.10 183.16 L147.33 183.05 L149.55 182.93 L151.78 182.80 L154.01 182.66 L156.24 182.52 L158.46 182.37 L160.69 182.21 L162.92 182.04 L165.15 181.85 L167.37 181.65 L169.60 181.42 L171.83 181.17 L174.05 180.88 L176.28 180.55 L178.51 180.18 L180.74 179.75 L182.96 179.26 L185.19 178.71 L187.42 178.09 L189.65 177.41 L191.87 176.67 L194.10 175.89 L196.33 175.07 L198.56 174.23 L200.78 173.39 L203.01 172.55 L205.24 171.74 L207.47 170.95 L209.69 170.19 L211.92 169.46 L214.15 168.75 L216.38 168.06 L218.60 167.38 L220.83 166.69 L223.06 165.98 L225.29 165.25 L227.51 164.49 L229.74 163.69 L231.97 162.85 L234.20 161.96 L236.42 161.04 L238.65 160.06 L240.88 159.04 L243.11 157.97 L245.33 156.85 L247.56 155.66 L249.79 154.42 L252.02 153.11 L254.24 151.73 L256.47 150.28 L258.70 148.76 L260.93 147.16 L263.15 145.49 L265.38 143.76 L267.61 141.95 L269.84 140.09 L272.06 138.17 L274.29 136.21 L276.52 134.21 L278.75 132.18 L280.97 130.13 L283.20 128.05 L285.43 125.94 L287.65 123.81 L289.88 121.63 L292.11 119.39 L294.34 117.07 L296.56 114.65 L298.79 112.10 L301.02 109.39 L303.25 106.50 L305.47 103.40 L307.70 100.10 L309.93 96.59 L312.16 92.88 L314.38 89.00 L316.61 84.98 L318.84 80.87 L321.07 76.72 L323.29 72.57 L325.52 68.50 L327.75 64.53 L329.98 60.72 L332.20 57.11 L334.43 53.70 L336.66 50.53 L338.89 47.59 L341.11 44.89 L343.34 42.42 L345.57 40.16 L347.80 38.11 L350.02 36.24 L352.25 34.56 L354.48 33.04 L356.71 31.70 L358.93 30.54 L361.16 29.57 L363.39 28.80 L365.62 28.27 L367.84 28.00 L370.07 28.02 L372.30 28.36 L374.53 29.03 L376.75 30.06 L378.98 31.44 L381.21 33.15 L383.44 35.18 L385.66 37.50 L387.89 40.05 L390.12 42.79 L392.35 45.68 L394.57 48.68 L396.80 51.74 L399.03 54.84 L401.25 57.98 L403.48 61.14 L405.71 64.35 L407.94 67.60 L410.16 70.93 L412.39 74.33 L414.62 77.83 L416.85 81.41 L419.07 85.07 L421.30 88.77 L423.53 92.49 L425.76 96.20 L427.98 99.83 L430.21 103.37 L432.44 106.78 L434.67 110.04 L436.89 113.14 L439.12 116.07 L441.35 118.87 L443.58 121.53 L445.80 124.10 L448.03 126.59 L450.26 129.03 L452.49 131.43 L454.71 133.82 L456.94 136.18 L459.17 138.51 L461.40 140.81 L463.62 143.06 L465.85 145.25 L468.08 147.36 L470.31 149.38 L472.53 151.30 L474.76 153.13 L476.99 154.86 L479.22 156.51 L481.44 158.08 L483.67 159.60 L485.90 161.06 L488.13 162.49 L490.35 163.88 L492.58 165.24 L494.81 166.58 L497.04 167.88 L499.26 169.14 L501.49 170.36 L503.72 171.52 L505.95 172.62 L508.17 173.65 L510.40 174.61 L512.63 175.49 L514.85 176.30 L517.08 177.04 L519.31 177.71 L521.54 178.31 L523.76 178.84 L525.99 179.32 L528.22 179.75 L530.45 180.12 L532.67 180.46 L534.90 180.75 L537.13 181.01 L539.36 181.24 L541.58 181.44 L543.81 181.63 L546.04 181.79 L548.27 181.94 L550.49 182.07 L552.72 182.19 L554.95 182.30 L557.18 182.41 L559.40 182.50 L561.63 182.58 L563.86 182.66 L566.09 182.73 L568.31 182.79 L570.54 182.84 L572.77 182.89 L575.00 182.94 L577.22 182.99 L579.45 183.03 L581.68 183.08 L583.91 183.13 L586.13 183.19 L588.36 183.25 L590.59 183.31 L592.82 183.37 L595.04 183.44 L597.27 183.51 L599.50 183.58 L601.73 183.64 L603.95 183.70 L606.18 183.75 L608.41 183.80 L610.64 183.84 L612.86 183.88 L615.09 183.91 L617.32 183.93 L619.55 183.95 L621.77 183.96 L624.00 183.98" fill="none" stroke="#ff7f0e" stroke-width="1.25" stroke-opacity="0.85" data-tip="chain 2"/></svg><svg y="660" xmlns="http://www.w3.org/2000/svg" width="640" height="220" viewBox="0 0 640 220" font-family="12px ui-monospace, SFMono-Regular, Menlo, monospace" font-size="12"><rect x="0" y="0" width="640" height="220" fill="var(--mcmc-bg,#ffffff)"/><text x="340" y="18" text-anchor="middle" font-weight="bold" fill="var(--mcmc-fg,#111)">alpha2  density</text><line x1="56" y1="184" x2="624" y2="184" stroke="var(--mcmc-fg,#333)"/><line x1="56" y1="28" x2="56" y2="184" stroke="var(--mcmc-fg,#333)"/><line x1="52" y1="184" x2="56" y2="184" stroke="var(--mcmc-fg,#333)"/><text x="49" y="188" text-anchor="end" fill="var(--mcmc-fg,#333)">0</text><line x1="52" y1="135.26157677788484" x2="56" y2="135.26157677788484" stroke="var(--mcmc-fg,#333)"/><text x="49" y="139.26157677788484" text-anchor="end" fill="var(--mcmc-fg,#333)">0.5</text><line x1="52" y1="86.52315355576965" x2="56" y2="86.52315355576965" stroke="var(--mcmc-fg,#333)"/><text x="49" y="90.52315355576965" text-anchor="end" fill="var(--mcmc-fg,#333)">1</text><line x1="52" y1="37.784730333654466" x2="56" y2="37.784730333654466" stroke="var(--mcmc-fg,#333)"/><text x="49" y="41.784730333654466" text-anchor="end" fill="var(--mcmc-fg,#333)">1.5</text><line x1="118.3969597950589" y1="184" x2="118.3969597950589" y2="188" stroke="var(--mcmc-fg,#333)"/><text x="118.3969597950589" y="201" text-anchor="middle" fill="var(--mcmc-fg,#333)">0.5</text><line x1="230.0114129422912" y1="184" x2="230.0114129422912" y2="188" stroke="var(--mcmc-fg,#333)"/><text x="230.0114129422912" y="201" text-anchor="middle" fill="var(--mcmc-fg,#333)">1</text><line x1="341.62586608952347" y1="184" x2="341.62586608952347" y2="188" stroke="var(--mcmc-fg,#333)"/><text x="341.62586608952347" y="201" text-anchor="middle" fill="var(--mcmc-fg,#333)">1.5</text><line x1="453.24031923675574" y1="184" x2="453.24031923675574" y2="188" stroke="var(--mcmc-fg,#333)"/><text x="453.24031923675574" y="201" text-anchor="middle" fill="var(--mcmc-fg,#333)">2</text><line x1="564.8547723839881" y1="184" x2="564.8547723839881" y2="188" stroke="var(--mcmc-fg,#333)"/><text x="564.8547723839881" y="201" text-anchor="middle" fill="var(--mcmc-fg,#333)">2.5</text><text x="340" y="216" text-anchor="middle" fill="var(--mcmc-fg,#333)">alpha2</text><text x="14" y="106" text-anchor="middle" fill="var(--mcmc-fg,#333)" transform="rotate(-90 14 106)">density</text><path d="M56.00 184.00 L58.23 184.00 L60.45 184.00 L62.68 184.00 L64.91 184.00 L67.14 184.00 L69.36 184.00 L71.59 184.00 L73.82 184.00 L76.05 184.00 L78.27 184.00 L80.50 183.99 L82.73 183.99 L84.96 183.98 L87.18 183.98 L89.41 183.97 L91.64 183.95 L93.87 183.93 L96.09 183.90 L98.32 183.87 L100.55 183.83 L102.78 183.77 L105.00 183.71 L107.23 183.63 L109.46 183.54 L111.69 183.44 L113.91 183.32 L116.14 183.20 L118.37 183.06 L120.60 182.92 L122.82 182.76 L125.05 182.60 L127.28 182.42 L129.51 182.24 L131.73 182.04 L133.96 181.82 L136.19 181.59 L138.42 181.34 L140.64 181.06 L142.87 180.75 L145.10 180.42 L147.33 180.04 L149.55 179.64 L151.78 179.19 L154.01 178.71 L156.24 178.19 L158.46 177.63 L160.69 177.01 L162.92 176.35 L165.15 175.64 L167.37 174.86 L169.60 174.01 L171.83 173.08 L174.05 172.07 L176.28 170.97 L178.51 169.79 L180.74 168.52 L182.96 167.18 L185.19 165.76 L187.42 164.28 L189.65 162.75 L191.87 161.19 L194.10 159.59 L196.33 157.97 L198.56 156.32 L200.78 154.64 L203.01 152.91 L205.24 151.12 L207.47 149.25 L209.69 147.27 L211.92 145.17 L214.15 142.92 L216.38 140.51 L218.60 137.93 L220.83 135.17 L223.06 132.23 L225.29 129.13 L227.51 125.87 L229.74 122.47 L231.97 118.97 L234.20 115.38 L236.42 111.73 L238.65 108.04 L240.88 104.34 L243.11 100.63 L245.33 96.93 L247.56 93.24 L249.79 89.57 L252.02 85.90 L254.24 82.23 L256.47 78.56 L258.70 74.89 L260.93 71.22 L263.15 67.54 L265.38 63.87 L267.61 60.21 L269.84 56.59 L272.06 53.02 L274.29 49.54 L276.52 46.17 L278.75 42.95 L280.97 39.93 L283.20 37.15 L285.43 34.66 L287.65 32.51 L289.88 30.74 L292.11 29.38 L294.34 28.46 L296.56 28.00 L298.79 28.00 L301.02 28.45 L303.25 29.33 L305.47 30.61 L307.70 32.24 L309.93 34.19 L312.16 36.40 L314.38 38.83 L316.61 41.44 L318.84 44.20 L321.07 47.08 L323.29 50.07 L325.52 53.15 L327.75 56.32 L329.98 59.58 L332.20 62.93 L334.43 66.36 L336.66 69.85 L338.89 73.40 L341.11 76.99 L343.34 80.58 L345.57 84.15 L347.80 87.68 L350.02 91.13 L352.25 94.49 L354.48 97.74 L356.71 100.88 L358.93 103.90 L361.16 106.82 L363.39 109.64 L365.62 112.38 L367.84 115.05 L370.07 117.65 L372.30 120.18 L374.53 122.63 L376.75 125.00 L378.98 127.27 L381.21 129.41 L383.44 131.40 L385.66 133.22 L387.89 134.87 L390.12 136.33 L392.35 137.63 L394.57 138.77 L396.80 139.78 L399.03 140.70 L401.25 141.56 L403.48 142.41 L405.71 143.28 L407.94 144.19 L410.16 145.18 L412.39 146.24 L414.62 147.38 L416.85 148.60 L419.07 149.88 L421.30 151.22 L423.53 152.58 L425.76 153.97 L427.98 155.37 L430.21 156.77 L432.44 158.16 L434.67 159.54 L436.89 160.90 L439.12 162.25 L441.35 163.57 L443.58 164.88 L445.80 166.15 L448.03 167.38 L450.26 168.58 L452.49 169.74 L454.71 170.85 L456.94 171.90 L459.17 172.91 L461.40 173.85 L463.62 174.74 L465.85 175.57 L468.08 176.34 L470.31 177.05 L472.53 177.70 L474.76 178.29 L476.99 178.82 L479.22 179.30 L481.44 179.73 L483.67 180.12 L485.90 180.46 L488.13 180.76 L490.35 181.03 L492.58 181.27 L494.81 181.49 L497.04 181.68 L499.26 181.86 L501.49 182.03 L503.72 182.19 L505.95 182.34 L508.17 182.49 L510.40 182.63 L512.63 182.77 L514.85 182.91 L517.08 183.05 L519.31 183.18 L521.54 183.30 L523.76 183.41 L525.99 183.52 L528.22 183.61 L530.45 183.69 L532.67 183.76 L534.90 183.82 L537.13 183.86 L539.36 183.90 L541.58 183.93 L543.81 183.95 L546.04 183.96 L548.27 183.98 L550.49 183.98 L552.72 183.99 L554.95 183.99 L557.18 184.00 L559.40 184.00 L561.63 184.00 L563.86 184.00 L566.09 184.00 L568.31 184.00 L570.54 184.00 L572.77 184.00 L575.00 184.00 L577.22 184.00 L579.45 184.00 L581.68 184.00 L583.91 184.00 L586.13 184.00 L588.36 184.00 L590.59 184.00 L592.82 184.00 L595.04 184.00 L597.27 184.00 L599.50 184.00 L601.73 184.00 L603.95 184.00 L606.18 184.00 L608.41 184.00 L610.64 184.00 L612.86 184.00 L615.09 184.00 L617.32 184.00 L619.55 184.00 L621.77 184.00 L624.00 184.00" fill="none" stroke="#1f77b4" stroke-width="1.25" stroke-opacity="0.85" data-tip="chain 1"/><path d="M56.00 183.86 L58.23 183.82 L60.45 183.78 L62.68 183.73 L64.91 183.67 L67.14 183.61 L69.36 183.55 L71.59 183.48 L73.82 183.42 L76.05 183.36 L78.27 183.30 L80.50 183.24 L82.73 183.18 L84.96 183.13 L87.18 183.08 L89.41 183.03 L91.64 182.97 L93.87 182.91 L96.09 182.85 L98.32 182.78 L100.55 182.70 L102.78 182.61 L105.00 182.51 L107.23 182.40 L109.46 182.28 L111.69 182.16 L113.91 182.04 L116.14 181.90 L118.37 181.77 L120.60 181.63 L122.82 181.49 L125.05 181.34 L127.28 181.19 L129.51 181.02 L131.73 180.84 L133.96 180.64 L136.19 180.42 L138.42 180.18 L140.64 179.91 L142.87 179.60 L145.10 179.27 L147.33 178.90 L149.55 178.50 L151.78 178.05 L154.01 177.56 L156.24 177.02 L158.46 176.41 L160.69 175.74 L162.92 174.98 L165.15 174.12 L167.37 173.17 L169.60 172.09 L171.83 170.90 L174.05 169.59 L176.28 168.17 L178.51 166.64 L180.74 165.03 L182.96 163.37 L185.19 161.68 L187.42 160.00 L189.65 158.35 L191.87 156.77 L194.10 155.27 L196.33 153.87 L198.56 152.56 L200.78 151.34 L203.01 150.18 L205.24 149.05 L207.47 147.91 L209.69 146.73 L211.92 145.48 L214.15 144.11 L216.38 142.60 L218.60 140.93 L220.83 139.09 L223.06 137.07 L225.29 134.86 L227.51 132.45 L229.74 129.85 L231.97 127.05 L234.20 124.04 L236.42 120.82 L238.65 117.37 L240.88 113.71 L243.11 109.85 L245.33 105.79 L247.56 101.57 L249.79 97.22 L252.02 92.79 L254.24 88.34 L256.47 83.91 L258.70 79.56 L260.93 75.33 L263.15 71.26 L265.38 67.38 L267.61 63.71 L269.84 60.26 L272.06 57.04 L274.29 54.06 L276.52 51.31 L278.75 48.81 L280.97 46.55 L283.20 44.55 L285.43 42.82 L287.65 41.35 L289.88 40.14 L292.11 39.19 L294.34 38.49 L296.56 38.02 L298.79 37.76 L301.02 37.69 L303.25 37.80 L305.47 38.06 L307.70 38.48 L309.93 39.04 L312.16 39.74 L314.38 40.60 L316.61 41.61 L318.84 42.80 L321.07 44.18 L323.29 45.75 L325.52 47.53 L327.75 49.54 L329.98 51.78 L332.20 54.25 L334.43 56.95 L336.66 59.86 L338.89 62.98 L341.11 66.27 L343.34 69.71 L345.57 73.24 L347.80 76.83 L350.02 80.44 L352.25 84.02 L354.48 87.53 L356.71 90.95 L358.93 94.25 L361.16 97.42 L363.39 100.46 L365.62 103.39 L367.84 106.21 L370.07 108.95 L372.30 111.62 L374.53 114.25 L376.75 116.86 L378.98 119.44 L381.21 121.99 L383.44 124.52 L385.66 127.02 L387.89 129.46 L390.12 131.84 L392.35 134.15 L394.57 136.37 L396.80 138.49 L399.03 140.53 L401.25 142.46 L403.48 144.31 L405.71 146.08 L407.94 147.76 L410.16 149.37 L412.39 150.92 L414.62 152.41 L416.85 153.84 L419.07 155.24 L421.30 156.60 L423.53 157.94 L425.76 159.26 L427.98 160.57 L430.21 161.88 L432.44 163.20 L434.67 164.51 L436.89 165.82 L439.12 167.11 L441.35 168.38 L443.58 169.61 L445.80 170.78 L448.03 171.88 L450.26 172.89 L452.49 173.81 L454.71 174.61 L456.94 175.32 L459.17 175.92 L461.40 176.44 L463.62 176.87 L465.85 177.25 L468.08 177.57 L470.31 177.87 L472.53 178.15 L474.76 178.43 L476.99 178.72 L479.22 179.02 L481.44 179.32 L483.67 179.64 L485.90 179.96 L488.13 180.27 L490.35 180.56 L492.58 180.84 L494.81 181.08 L497.04 181.30 L499.26 181.48 L501.49 181.63 L503.72 181.74 L505.95 181.83 L508.17 181.90 L510.40 181.95 L512.63 181.99 L514.85 182.03 L517.08 182.07 L519.31 182.11 L521.54 182.16 L523.76 182.23 L525.99 182.31 L528.22 182.41 L530.45 182.51 L532.67 182.63 L534.90 182.76 L537.13 182.89 L539.36 183.03 L541.58 183.16 L543.81 183.29 L546.04 183.41 L548.27 183.52 L550.49 183.61 L552.72 183.69 L554.95 183.76 L557.18 183.81 L559.40 183.85 L561.63 183.87 L563.86 183.89 L566.09 183.89 L568.31 183.89 L570.54 183.87 L572.77 183.85 L575.00 183.81 L577.22 183.77 L579.45 183.73 L581.68 183.68 L583.91 183.63 L586.13 183.58 L588.36 183.54 L590.59 183.49 L592.82 183.46 L595.04 183.44 L597.27 183.43 L599.50 183.43 L601.73 183.44 L603.95 183.47 L606.18 183.50 L608.41 183.54 L610.64 183.59 L612.86 183.64 L615.09 183.69 L617.32 183.74 L619.55 183.79 L621.77 183.83 L624.00 183.87" fill="none" stroke="#ff7f0e" stroke-width="1.25" stroke-opacity="0.85" data-tip="chain 2"/></svg><svg y="880" xmlns="http://www.w3.org/2000/svg" width="640" height="220" viewBox="0 0 640 220" font-family="12px ui-monospace, SFMono-Regular, Menlo, monospace" font-size="12"><rect x="0" y="0" width="640" height="220" fill="var(--mcmc-bg,#ffffff)"/><text x="340" y="18" text-anchor="middle" font-weight="bold" fill="var(--mcmc-fg,#111)">sigma  density</text><line x1="56" y1="184" x2="624" y2="184" stroke="var(--mcmc-fg,#333)"/><line x1="56" y1="28" x2="56" y2="184" stroke="var(--mcmc-fg,#333)"/><line x1="52" y1="184" x2="56" y2="184" stroke="var(--mcmc-fg,#333)"/><text x="49" y="188" text-anchor="end" fill="var(--mcmc-fg,#333)">0</text><line x1="52" y1="157.63665356526735" x2="56" y2="157.63665356526735" stroke="var(--mcmc-fg,#333)"/><text x="49" y="161.63665356526735" text-anchor="end" fill="var(--mcmc-fg,#333)">0.5</text><line x1="52" y1="131.27330713053473" x2="56" y2="131.27330713053473" stroke="var(--mcmc-fg,#333)"/><text x="49" y="135.27330713053473" text-anchor="end" fill="var(--mcmc-fg,#333)">1</text><line x1="52" y1="104.9099606958021" x2="56" y2="104.9099606958021" stroke="var(--mcmc-fg,#333)"/><text x="49" y="108.9099606958021" text-anchor="end" fill="var(--mcmc-fg,#333)">1.5</text><line x1="52" y1="78.54661426106946" x2="56" y2="78.54661426106946" stroke="var(--mcmc-fg,#333)"/><text x="49" y="82.54661426106946" text-anchor="end" fill="var(--mcmc-fg,#333)">2</text><line x1="52" y1="52.183267826336845" x2="56" y2="52.183267826336845" stroke="var(--mcmc-fg,#333)"/><text x="49" y="56.183267826336845" text-anchor="end" fill="var(--mcmc-fg,#333)">2.5</text><line x1="72.34619753723337" y1="184" x2="72.34619753723337" y2="188" stroke="var(--mcmc-fg,#333)"/><text x="72.34619753723337" y="201" text-anchor="middle" fill="var(--mcmc-fg,#333)">0</text><line x1="177.6592846912747" y1="184" x2="177.6592846912747" y2="188" stroke="var(--mcmc-fg,#333)"/><text x="177.6592846912747" y="201" text-anchor="middle" fill="var(--mcmc-fg,#333)">0.2</text><line x1="282.9723718453161" y1="184" x2="282.9723718453161" y2="188" stroke="var(--mcmc-fg,#333)"/><text x="282.9723718453161" y="201" text-anchor="middle" fill="var(--mcmc-fg,#333)">0.4</text><line x1="388.28545899935745" y1="184" x2="388.28545899935745" y2="188" stroke="var(--mcmc-fg,#333)"/><text x="388.28545899935745" y="201" text-anchor="middle" fill="var(--mcmc-fg,#333)">0.6</text><line x1="493.5985461533988" y1="184" x2="493.5985461533988" y2="188" stroke="var(--mcmc-fg,#333)"/><text x="493.5985461533988" y="201" text-anchor="middle" fill="var(--mcmc-fg,#333)">0.8</text><line x1="598.9116333074401" y1="184" x2="598.9116333074401" y2="188" stroke="var(--mcmc-fg,#333)"/><text x="598.9116333074401" y="201" text-anchor="middle" fill="var(--mcmc-fg,#333)">1</text><text x="340" y="216" text-anchor="middle" fill="var(--mcmc-fg,#333)">sigma</text><text x="14" y="106" text-anchor="middle" fill="var(--mcmc-fg,#333)" transform="rotate(-90 14 106)">density</text><path d="M56.00 179.37 L58.23 178.24 L60.45 176.91 L62.68 175.38 L64.91 173.62 L67.14 171.65 L69.36 169.46 L71.59 167.06 L73.82 164.47 L76.05 161.71 L78.27 158.81 L80.50 155.79 L82.73 152.70 L84.96 149.58 L87.18 146.46 L89.41 143.39 L91.64 140.38 L93.87 137.48 L96.09 134.71 L98.32 132.08 L100.55 129.60 L102.78 127.27 L105.00 125.10 L107.23 123.07 L109.46 121.17 L111.69 119.38 L113.91 117.68 L116.14 116.06 L118.37 114.50 L120.60 112.99 L122.82 111.51 L125.05 110.04 L127.28 108.57 L129.51 107.10 L131.73 105.61 L133.96 104.09 L136.19 102.53 L138.42 100.91 L140.64 99.24 L142.87 97.49 L145.10 95.66 L147.33 93.74 L149.55 91.73 L151.78 89.63 L154.01 87.45 L156.24 85.19 L158.46 82.87 L160.69 80.50 L162.92 78.12 L165.15 75.73 L167.37 73.36 L169.60 71.02 L171.83 68.73 L174.05 66.50 L176.28 64.33 L178.51 62.22 L180.74 60.16 L182.96 58.15 L185.19 56.17 L187.42 54.20 L189.65 52.24 L191.87 50.28 L194.10 48.32 L196.33 46.34 L198.56 44.36 L200.78 42.39 L203.01 40.44 L205.24 38.54 L207.47 36.71 L209.69 34.98 L211.92 33.38 L214.15 31.94 L216.38 30.70 L218.60 29.67 L220.83 28.88 L223.06 28.36 L225.29 28.12 L227.51 28.16 L229.74 28.51 L231.97 29.16 L234.20 30.11 L236.42 31.35 L238.65 32.88 L240.88 34.69 L243.11 36.75 L245.33 39.06 L247.56 41.60 L249.79 44.35 L252.02 47.28 L254.24 50.38 L256.47 53.61 L258.70 56.96 L260.93 60.39 L263.15 63.88 L265.38 67.39 L267.61 70.90 L269.84 74.37 L272.06 77.78 L274.29 81.10 L276.52 84.30 L278.75 87.36 L280.97 90.26 L283.20 93.00 L285.43 95.57 L287.65 97.96 L289.88 100.20 L292.11 102.28 L294.34 104.23 L296.56 106.08 L298.79 107.84 L301.02 109.55 L303.25 111.23 L305.47 112.91 L307.70 114.62 L309.93 116.37 L312.16 118.18 L314.38 120.07 L316.61 122.03 L318.84 124.07 L321.07 126.17 L323.29 128.32 L325.52 130.52 L327.75 132.72 L329.98 134.92 L332.20 137.10 L334.43 139.22 L336.66 141.27 L338.89 143.24 L341.11 145.11 L343.34 146.87 L345.57 148.52 L347.80 150.06 L350.02 151.50 L352.25 152.83 L354.48 154.06 L356.71 155.21 L358.93 156.28 L361.16 157.29 L363.39 158.25 L365.62 159.16 L367.84 160.04 L370.07 160.89 L372.30 161.73 L374.53 162.55 L376.75 163.37 L378.98 164.18 L381.21 164.99 L383.44 165.80 L385.66 166.60 L387.89 167.40 L390.12 168.19 L392.35 168.96 L394.57 169.72 L396.80 170.44 L399.03 171.14 L401.25 171.81 L403.48 172.43 L405.71 173.02 L407.94 173.56 L410.16 174.05 L412.39 174.50 L414.62 174.91 L416.85 175.28 L419.07 175.61 L421.30 175.92 L423.53 176.19 L425.76 176.44 L427.98 176.68 L430.21 176.91 L432.44 177.14 L434.67 177.37 L436.89 177.60 L439.12 177.84 L441.35 178.10 L443.58 178.36 L445.80 178.65 L448.03 178.94 L450.26 179.25 L452.49 179.56 L454.71 179.88 L456.94 180.20 L459.17 180.51 L461.40 180.82 L463.62 181.11 L465.85 181.39 L468.08 181.65 L470.31 181.89 L472.53 182.11 L474.76 182.30 L476.99 182.48 L479.22 182.64 L481.44 182.78 L483.67 182.90 L485.90 183.01 L488.13 183.11 L490.35 183.20 L492.58 183.29 L494.81 183.36 L497.04 183.43 L499.26 183.50 L501.49 183.56 L503.72 183.62 L505.95 183.67 L508.17 183.72 L510.40 183.76 L512.63 183.80 L514.85 183.84 L517.08 183.87 L519.31 183.89 L521.54 183.92 L523.76 183.93 L525.99 183.95 L528.22 183.96 L530.45 183.97 L532.67 183.98 L534.90 183.98 L537.13 183.99 L539.36 183.99 L541.58 183.99 L543.81 184.00 L546.04 184.00 L548.27 184.00 L550.49 184.00 L552.72 184.00 L554.95 184.00 L557.18 184.00 L559.40 184.00 L561.63 184.00 L563.86 184.00 L566.09 184.00 L568.31 184.00 L570.54 184.00 L572.77 184.00 L575.00 184.00 L577.22 184.00 L579.45 184.00 L581.68 184.00 L583.91 184.00 L586.13 184.00 L588.36 184.00 L590.59 184.00 L592.82 184.00 L595.04 184.00 L597.27 184.00 L599.50 184.00 L601.73 184.00 L603.95 184.00 L606.18 184.00 L608.41 184.00 L610.64 184.00 L612.86 184.00 L615.09 184.00 L617.32 184.00 L619.55 184.00 L621.77 184.00 L624.00 184.00" fill="none" stroke="#1f77b4" stroke-width="1.25" stroke-opacity="0.85" data-tip="chain 1"/><path d="M56.00 181.23 L58.23 180.50 L60.45 179.62 L62.68 178.58 L64.91 177.35 L67.14 175.93 L69.36 174.30 L71.59 172.45 L73.82 170.37 L76.05 168.07 L78.27 165.56 L80.50 162.83 L82.73 159.91 L84.96 156.83 L87.18 153.60 L89.41 150.26 L91.64 146.85 L93.87 143.40 L96.09 139.96 L98.32 136.56 L100.55 133.25 L102.78 130.05 L105.00 127.00 L107.23 124.11 L109.46 121.41 L111.69 118.90 L113.91 116.58 L116.14 114.45 L118.37 112.48 L120.60 110.66 L122.82 108.94 L125.05 107.31 L127.28 105.71 L129.51 104.11 L131.73 102.46 L133.96 100.73 L136.19 98.89 L138.42 96.91 L140.64 94.76 L142.87 92.43 L145.10 89.92 L147.33 87.22 L149.55 84.36 L151.78 81.36 L154.01 78.23 L156.24 75.01 L158.46 71.73 L160.69 68.42 L162.92 65.12 L165.15 61.87 L167.37 58.68 L169.60 55.58 L171.83 52.59 L174.05 49.73 L176.28 47.00 L178.51 44.42 L180.74 41.99 L182.96 39.73 L185.19 37.63 L187.42 35.70 L189.65 33.97 L191.87 32.42 L194.10 31.09 L196.33 29.98 L198.56 29.10 L200.78 28.48 L203.01 28.10 L205.24 28.00 L207.47 28.16 L209.69 28.60 L211.92 29.29 L214.15 30.24 L216.38 31.43 L218.60 32.85 L220.83 34.47 L223.06 36.27 L225.29 38.23 L227.51 40.32 L229.74 42.53 L231.97 44.82 L234.20 47.18 L236.42 49.59 L238.65 52.02 L240.88 54.45 L243.11 56.88 L245.33 59.28 L247.56 61.65 L249.79 63.97 L252.02 66.23 L254.24 68.44 L256.47 70.59 L258.70 72.67 L260.93 74.70 L263.15 76.67 L265.38 78.60 L267.61 80.50 L269.84 82.37 L272.06 84.22 L274.29 86.07 L276.52 87.93 L278.75 89.80 L280.97 91.69 L283.20 93.62 L285.43 95.57 L287.65 97.56 L289.88 99.59 L292.11 101.65 L294.34 103.74 L296.56 105.86 L298.79 108.01 L301.02 110.18 L303.25 112.36 L305.47 114.57 L307.70 116.78 L309.93 119.00 L312.16 121.22 L314.38 123.44 L316.61 125.65 L318.84 127.83 L321.07 129.99 L323.29 132.11 L325.52 134.18 L327.75 136.20 L329.98 138.15 L332.20 140.03 L334.43 141.83 L336.66 143.55 L338.89 145.18 L341.11 146.72 L343.34 148.18 L345.57 149.56 L347.80 150.87 L350.02 152.10 L352.25 153.27 L354.48 154.39 L356.71 155.45 L358.93 156.48 L361.16 157.46 L363.39 158.41 L365.62 159.34 L367.84 160.23 L370.07 161.10 L372.30 161.95 L374.53 162.78 L376.75 163.59 L378.98 164.37 L381.21 165.14 L383.44 165.89 L385.66 166.63 L387.89 167.34 L390.12 168.04 L392.35 168.73 L394.57 169.39 L396.80 170.04 L399.03 170.67 L401.25 171.28 L403.48 171.86 L405.71 172.42 L407.94 172.95 L410.16 173.45 L412.39 173.91 L414.62 174.35 L416.85 174.74 L419.07 175.11 L421.30 175.44 L423.53 175.73 L425.76 176.00 L427.98 176.25 L430.21 176.47 L432.44 176.67 L434.67 176.86 L436.89 177.03 L439.12 177.20 L441.35 177.37 L443.58 177.53 L445.80 177.70 L448.03 177.87 L450.26 178.04 L452.49 178.22 L454.71 178.41 L456.94 178.61 L459.17 178.81 L461.40 179.01 L463.62 179.23 L465.85 179.44 L468.08 179.67 L470.31 179.89 L472.53 180.12 L474.76 180.35 L476.99 180.59 L479.22 180.82 L481.44 181.05 L483.67 181.28 L485.90 181.51 L488.13 181.73 L490.35 181.94 L492.58 182.15 L494.81 182.34 L497.04 182.53 L499.26 182.70 L501.49 182.85 L503.72 182.99 L505.95 183.12 L508.17 183.23 L510.40 183.32 L512.63 183.39 L514.85 183.44 L517.08 183.48 L519.31 183.51 L521.54 183.52 L523.76 183.51 L525.99 183.50 L528.22 183.47 L530.45 183.43 L532.67 183.39 L534.90 183.34 L537.13 183.29 L539.36 183.24 L541.58 183.19 L543.81 183.14 L546.04 183.09 L548.27 183.05 L550.49 183.02 L552.72 182.98 L554.95 182.96 L557.18 182.94 L559.40 182.93 L561.63 182.93 L563.86 182.93 L566.09 182.93 L568.31 182.94 L570.54 182.96 L572.77 182.97 L575.00 182.99 L577.22 183.01 L579.45 183.03 L581.68 183.05 L583.91 183.08 L586.13 183.10 L588.36 183.13 L590.59 183.15 L592.82 183.18 L595.04 183.21 L597.27 183.24 L599.50 183.28 L601.73 183.31 L603.95 183.35 L606.18 183.40 L608.41 183.44 L610.64 183.49 L612.86 183.53 L615.09 183.58 L617.32 183.63 L619.55 183.67 L621.77 183.71 L624.00 183.75" fill="none" stroke="#ff7f0e" stroke-width="1.25" stroke-opacity="0.85" data-tip="chain 2"/></svg></svg>